<svg xmlns="http://www.w3.org/2000/svg" viewBox="0 0 211 260" width="211" height="260" fill="black">
  <g fill-rule="evenodd" transform="scale(1,-1) translate(0,-260)">
  <path d="M 114.50,46.00 115.00,45.50 115.50,45.00 116.00,44.50 116.50,44.00 116.50,43.00 117.00,42.50 117.50,42.00 118.00,41.50 118.50,41.00 118.50,40.00 119.00,39.50 119.50,39.00 120.00,38.50 120.50,38.00 120.50,37.00 121.00,36.50 121.50,36.00 122.00,35.50 122.50,35.00 122.50,34.00 123.00,33.50 123.50,33.00 123.50,32.00 124.00,31.50 124.50,31.00 125.00,30.50 125.50,30.00 125.50,29.00 126.00,28.50 126.50,28.00 127.00,27.50 127.50,27.00 127.50,26.00 128.00,25.50 128.50,25.00 129.00,24.50 129.50,24.00 129.50,23.00 130.00,22.50 130.50,22.00 131.00,21.50 131.50,21.00 131.50,20.00 132.00,19.50 132.50,19.00 133.00,18.50 133.50,18.00 133.50,17.00 134.00,16.50 134.50,16.00 135.00,15.50 135.50,15.00 135.50,14.00 136.00,13.50 136.50,13.00 136.50,12.00 136.00,11.50 135.00,11.50 134.00,11.50 133.00,11.50 132.00,11.50 131.00,11.50 130.00,11.50 129.00,11.50 128.00,11.50 127.00,11.50 126.00,11.50 125.00,11.50 124.00,11.50 123.00,11.50 122.00,11.50 121.00,11.50 120.00,11.50 119.00,11.50 118.00,11.50 117.00,11.50 116.00,11.50 115.00,11.50 114.00,11.50 113.50,12.00 113.50,13.00 113.50,14.00 113.50,15.00 113.50,16.00 113.50,17.00 113.50,18.00 113.50,19.00 113.50,20.00 113.50,21.00 113.50,22.00 113.50,23.00 113.50,24.00 113.50,25.00 113.50,26.00 113.50,27.00 113.50,28.00 113.50,29.00 113.50,30.00 113.50,31.00 113.50,32.00 113.50,33.00 113.50,34.00 113.50,35.00 113.50,36.00 113.50,37.00 113.50,38.00 113.50,39.00 113.50,40.00 113.50,41.00 113.50,42.00 113.50,43.00 113.50,44.00 113.50,45.00 113.50,46.00 114.00,46.50 114.50,46.00 Z" />
  <path d="M 109.00,247.50 109.50,247.00 110.00,246.50 110.50,246.00 111.00,245.50 111.50,245.00 112.00,244.50 112.50,244.00 113.00,243.50 113.50,243.00 114.00,242.50 114.50,242.00 115.00,241.50 115.50,241.00 116.00,240.50 116.50,240.00 117.00,239.50 117.50,239.00 118.00,238.50 118.50,238.00 118.50,237.00 119.00,236.50 119.50,236.00 120.00,235.50 120.50,235.00 121.00,234.50 121.50,234.00 122.00,233.50 122.50,233.00 123.00,232.50 123.50,232.00 124.00,231.50 124.50,231.00 125.00,230.50 125.50,230.00 126.00,229.50 126.50,229.00 127.00,228.50 127.50,228.00 128.00,227.50 128.50,227.00 129.00,226.50 129.50,226.00 129.50,225.00 130.00,224.50 130.50,224.00 131.00,223.50 131.50,223.00 132.00,222.50 132.50,222.00 133.00,221.50 133.50,221.00 134.00,220.50 134.50,220.00 135.00,219.50 135.50,219.00 135.50,218.00 136.00,217.50 136.50,217.00 137.00,216.50 137.50,216.00 138.00,215.50 138.50,215.00 139.00,214.50 139.50,214.00 140.00,213.50 140.50,213.00 141.00,212.50 141.50,212.00 142.00,211.50 142.50,211.00 143.00,210.50 143.50,210.00 144.00,209.50 144.50,209.00 144.50,208.00 145.00,207.50 145.50,207.00 146.00,206.50 146.50,206.00 147.00,205.50 147.50,205.00 148.00,204.50 148.50,204.00 149.00,203.50 149.50,203.00 150.00,202.50 150.50,202.00 151.00,201.50 151.50,201.00 151.50,200.00 152.00,199.50 152.50,199.00 153.00,198.50 153.50,198.00 154.00,197.50 154.50,197.00 155.00,196.50 155.50,196.00 156.00,195.50 156.50,195.00 156.50,194.00 157.00,193.50 157.50,193.00 158.00,192.50 158.50,192.00 159.00,191.50 159.50,191.00 160.00,190.50 160.50,190.00 160.50,189.00 161.00,188.50 161.50,188.00 162.00,187.50 162.50,187.00 162.50,186.00 163.00,185.50 163.50,185.00 164.00,184.50 164.50,184.00 164.50,183.00 165.00,182.50 165.50,182.00 166.00,181.50 166.50,181.00 166.50,180.00 167.00,179.50 167.50,179.00 167.50,178.00 168.00,177.50 168.50,177.00 168.50,176.00 169.00,175.50 169.50,175.00 169.50,174.00 170.00,173.50 170.50,173.00 170.50,172.00 170.50,171.00 171.00,170.50 171.50,170.00 171.50,169.00 171.50,168.00 172.00,167.50 172.50,167.00 172.50,166.00 172.50,165.00 173.00,164.50 173.50,164.00 173.50,163.00 173.50,162.00 173.50,161.00 174.00,160.50 174.50,160.00 174.50,159.00 174.50,158.00 174.50,157.00 174.50,156.00 175.00,155.50 175.50,155.00 175.50,154.00 175.50,153.00 175.50,152.00 175.50,151.00 175.50,150.00 175.50,149.00 175.50,148.00 175.50,147.00 175.50,146.00 175.50,145.00 175.50,144.00 175.50,143.00 175.00,142.50 174.50,142.00 174.50,141.00 174.50,140.00 174.50,139.00 174.50,138.00 174.50,137.00 174.50,136.00 174.00,135.50 173.50,135.00 173.50,134.00 173.50,133.00 173.50,132.00 173.00,131.50 172.50,131.00 172.50,130.00 172.50,129.00 172.00,128.50 171.50,128.00 171.50,127.00 171.50,126.00 171.00,125.50 170.50,125.00 170.50,124.00 170.00,123.50 169.50,123.00 169.50,122.00 169.00,121.50 168.50,121.00 168.50,120.00 168.00,119.50 167.50,119.00 167.50,118.00 167.00,117.50 166.50,117.00 166.50,116.00 166.00,115.50 165.50,115.00 165.00,114.50 164.50,114.00 164.50,113.00 164.00,112.50 163.50,112.00 163.00,111.50 162.50,111.00 162.00,110.50 161.50,110.00 161.50,109.00 161.00,108.50 160.50,108.00 160.00,107.50 159.50,107.00 159.00,106.50 158.50,106.00 158.00,105.50 157.50,105.00 157.50,104.00 157.00,103.50 156.00,103.50 155.50,103.00 155.50,102.00 155.00,101.50 154.50,101.00 154.00,100.50 153.00,100.50 152.50,100.00 152.00,99.50 151.50,99.00 151.00,98.50 150.50,98.00 150.00,97.50 149.50,97.00 149.00,96.50 148.00,96.50 147.50,96.00 147.00,95.50 146.50,95.00 146.00,94.50 145.50,94.00 145.00,93.50 144.00,93.50 143.50,93.00 143.00,92.50 142.00,92.50 141.50,92.00 141.00,91.50 140.50,91.00 140.00,90.50 139.00,90.50 138.50,90.00 138.00,89.50 137.00,89.50 136.50,89.00 136.00,88.50 135.00,88.50 134.00,88.50 133.50,88.00 133.00,87.50 132.00,87.50 131.50,87.00 132.00,86.50 132.50,86.00 132.50,85.00 133.00,84.50 133.50,84.00 134.00,83.50 134.50,83.00 134.50,82.00 135.00,81.50 135.50,81.00 136.00,80.50 136.50,80.00 136.50,79.00 137.00,78.50 137.50,78.00 138.00,77.50 138.50,77.00 138.50,76.00 139.00,75.50 139.50,75.00 140.00,74.50 140.50,74.00 141.00,73.50 141.50,73.00 141.50,72.00 142.00,71.50 142.50,71.00 143.00,70.50 143.50,70.00 143.50,69.00 144.00,68.50 144.50,68.00 145.00,67.50 145.50,67.00 145.50,66.00 146.00,65.50 146.50,65.00 147.00,64.50 147.50,64.00 147.50,63.00 148.00,62.50 148.50,62.00 149.00,61.50 149.50,61.00 149.50,60.00 150.00,59.50 150.50,59.00 151.00,58.50 151.50,58.00 151.50,57.00 152.00,56.50 152.50,56.00 153.00,55.50 153.50,55.00 153.50,54.00 154.00,53.50 154.50,53.00 155.00,52.50 155.50,52.00 156.00,51.50 156.50,51.00 156.50,50.00 157.00,49.50 157.50,49.00 157.50,48.00 158.00,47.50 158.50,47.00 159.00,46.50 159.50,46.00 160.00,45.50 160.50,45.00 160.50,44.00 161.00,43.50 161.50,43.00 162.00,42.50 162.50,42.00 162.50,41.00 163.00,40.50 163.50,40.00 164.00,39.50 164.50,39.00 164.50,38.00 165.00,37.50 165.50,37.00 166.00,36.50 166.50,36.00 166.50,35.00 167.00,34.50 167.50,34.00 168.00,33.50 168.50,33.00 168.50,32.00 169.00,31.50 169.50,31.00 170.00,30.50 170.50,30.00 170.50,29.00 171.00,28.50 171.50,28.00 172.00,27.50 172.50,27.00 173.00,26.50 173.50,26.00 173.50,25.00 174.00,24.50 174.50,24.00 175.00,23.50 175.50,23.00 175.50,22.00 176.00,21.50 176.50,21.00 177.00,20.50 177.50,20.00 177.50,19.00 178.00,18.50 178.50,18.00 179.00,17.50 179.50,17.00 179.50,16.00 180.00,15.50 180.50,15.00 181.00,14.50 181.50,14.00 181.50,13.00 182.00,12.50 182.50,12.00 182.00,11.50 181.00,11.50 180.00,11.50 179.00,11.50 178.00,11.50 177.00,11.50 176.00,11.50 175.00,11.50 174.00,11.50 173.00,11.50 172.00,11.50 171.00,11.50 170.00,11.50 169.00,11.50 168.00,11.50 167.00,11.50 166.00,11.50 165.00,11.50 164.00,11.50 163.00,11.50 162.00,11.50 161.00,11.50 160.00,11.50 159.50,12.00 159.00,12.50 158.50,13.00 158.00,13.50 157.50,14.00 157.50,15.00 157.00,15.50 156.50,16.00 156.00,16.50 155.50,17.00 155.50,18.00 155.00,18.50 154.50,19.00 154.00,19.50 153.50,20.00 153.50,21.00 153.00,21.50 152.50,22.00 152.00,22.50 151.50,23.00 151.50,24.00 151.00,24.50 150.50,25.00 150.00,25.50 149.50,26.00 149.00,26.50 148.50,27.00 148.50,28.00 148.00,28.50 147.50,29.00 147.00,29.50 146.50,30.00 146.50,31.00 146.00,31.50 145.50,32.00 145.00,32.50 144.50,33.00 144.50,34.00 144.00,34.50 143.50,35.00 143.00,35.50 142.50,36.00 142.50,37.00 142.00,37.50 141.50,38.00 141.00,38.50 140.50,39.00 140.50,40.00 140.00,40.50 139.50,41.00 139.00,41.50 138.50,42.00 138.50,43.00 138.00,43.50 137.50,44.00 137.00,44.50 136.50,45.00 136.50,46.00 136.00,46.50 135.50,47.00 135.00,47.50 134.50,48.00 134.50,49.00 134.00,49.50 133.50,50.00 133.00,50.50 132.50,51.00 132.00,51.50 131.50,52.00 131.50,53.00 131.00,53.50 130.50,54.00 130.50,55.00 130.00,55.50 129.50,56.00 129.00,56.50 128.50,57.00 128.00,57.50 127.50,58.00 127.50,59.00 127.00,59.50 126.50,60.00 126.00,60.50 125.50,61.00 125.50,62.00 125.00,62.50 124.50,63.00 124.00,63.50 123.50,64.00 123.50,65.00 123.00,65.50 122.50,66.00 122.00,66.50 121.50,67.00 121.50,68.00 121.00,68.50 120.50,69.00 120.00,69.50 119.50,70.00 119.50,71.00 119.00,71.50 118.50,72.00 118.00,72.50 117.50,73.00 117.50,74.00 117.00,74.50 116.50,75.00 116.00,75.50 115.50,76.00 115.50,77.00 115.00,77.50 114.50,78.00 114.00,78.50 113.50,79.00 113.50,80.00 113.00,80.50 112.50,81.00 112.00,81.50 111.50,82.00 111.50,83.00 111.00,83.50 110.50,84.00 110.00,84.50 109.50,85.00 109.50,86.00 109.00,86.50 108.50,87.00 108.00,87.50 107.50,88.00 107.50,89.00 107.00,89.50 106.50,90.00 106.00,90.50 105.50,91.00 105.50,92.00 105.00,92.50 104.50,93.00 104.00,93.50 103.50,94.00 103.50,95.00 103.00,95.50 102.50,96.00 102.00,96.50 101.50,97.00 101.50,98.00 101.00,98.50 100.50,99.00 100.00,99.50 99.50,100.00 99.50,101.00 99.00,101.50 98.50,102.00 98.00,102.50 97.50,103.00 97.50,104.00 97.00,104.50 96.50,105.00 96.50,106.00 96.00,106.50 95.50,106.00 95.50,105.00 95.50,104.00 95.50,103.00 95.50,102.00 95.50,101.00 95.50,100.00 95.50,99.00 95.50,98.00 95.50,97.00 95.50,96.00 95.50,95.00 95.50,94.00 95.50,93.00 95.50,92.00 95.50,91.00 95.50,90.00 95.50,89.00 95.50,88.00 95.50,87.00 95.50,86.00 95.50,85.00 95.50,84.00 95.50,83.00 95.50,82.00 95.50,81.00 95.50,80.00 95.50,79.00 95.50,78.00 95.50,77.00 95.50,76.00 95.50,75.00 95.50,74.00 95.50,73.00 95.50,72.00 95.50,71.00 95.50,70.00 95.50,69.00 95.50,68.00 95.50,67.00 95.50,66.00 95.50,65.00 95.50,64.00 95.50,63.00 95.50,62.00 95.50,61.00 95.50,60.00 95.50,59.00 95.50,58.00 95.50,57.00 95.50,56.00 95.50,55.00 95.50,54.00 95.50,53.00 95.50,52.00 95.50,51.00 95.50,50.00 95.50,49.00 95.50,48.00 95.50,47.00 95.50,46.00 95.50,45.00 95.50,44.00 95.50,43.00 95.50,42.00 95.50,41.00 95.50,40.00 95.50,39.00 95.50,38.00 95.50,37.00 95.50,36.00 95.50,35.00 95.50,34.00 95.50,33.00 95.50,32.00 95.50,31.00 95.50,30.00 95.50,29.00 95.50,28.00 95.50,27.00 95.50,26.00 95.50,25.00 95.50,24.00 95.50,23.00 95.50,22.00 95.50,21.00 95.50,20.00 95.50,19.00 95.50,18.00 95.50,17.00 95.50,16.00 95.50,15.00 95.50,14.00 95.50,13.00 95.50,12.00 95.00,11.50 94.00,11.50 93.00,11.50 92.00,11.50 91.00,11.50 90.00,11.50 89.00,11.50 88.00,11.50 87.00,11.50 86.00,11.50 85.00,11.50 84.00,11.50 83.00,11.50 82.00,11.50 81.00,11.50 80.00,11.50 79.00,11.50 78.00,11.50 77.00,11.50 76.50,12.00 76.00,12.50 75.50,13.00 75.50,14.00 75.50,15.00 75.50,16.00 75.50,17.00 75.50,18.00 75.50,19.00 75.50,20.00 75.50,21.00 75.50,22.00 75.50,23.00 75.50,24.00 75.50,25.00 75.50,26.00 75.50,27.00 75.50,28.00 75.50,29.00 75.50,30.00 75.50,31.00 75.50,32.00 75.50,33.00 75.50,34.00 75.50,35.00 76.00,35.50 76.50,36.00 76.00,36.50 75.50,37.00 75.50,38.00 75.50,39.00 76.00,39.50 76.50,40.00 76.00,40.50 75.50,41.00 75.50,42.00 75.50,43.00 75.50,44.00 75.50,45.00 75.50,46.00 75.50,47.00 75.50,48.00 75.50,49.00 75.50,50.00 75.50,51.00 75.50,52.00 75.50,53.00 75.50,54.00 75.50,55.00 75.50,56.00 75.50,57.00 75.50,58.00 75.50,59.00 75.50,60.00 75.50,61.00 75.50,62.00 75.50,63.00 75.50,64.00 75.50,65.00 75.50,66.00 75.50,67.00 75.50,68.00 75.50,69.00 75.50,70.00 75.50,71.00 75.50,72.00 75.50,73.00 75.50,74.00 75.50,75.00 75.50,76.00 75.50,77.00 75.50,78.00 75.50,79.00 75.50,80.00 75.50,81.00 75.50,82.00 75.50,83.00 75.50,84.00 75.50,85.00 75.50,86.00 75.50,87.00 75.50,88.00 75.50,89.00 75.50,90.00 75.50,91.00 75.50,92.00 75.50,93.00 75.50,94.00 75.50,95.00 75.50,96.00 75.50,97.00 75.50,98.00 75.50,99.00 75.50,100.00 75.50,101.00 75.50,102.00 75.50,103.00 75.50,104.00 75.50,105.00 75.50,106.00 75.50,107.00 75.50,108.00 75.50,109.00 75.50,110.00 75.50,111.00 75.50,112.00 75.50,113.00 75.50,114.00 75.50,115.00 75.50,116.00 75.50,117.00 75.50,118.00 75.50,119.00 75.50,120.00 75.50,121.00 75.50,122.00 75.50,123.00 75.50,124.00 75.50,125.00 75.50,126.00 75.50,127.00 75.50,128.00 75.50,129.00 75.50,130.00 75.50,131.00 75.50,132.00 75.50,133.00 75.50,134.00 75.50,135.00 75.50,136.00 75.50,137.00 75.50,138.00 75.50,139.00 75.50,140.00 75.50,141.00 75.50,142.00 75.50,143.00 75.50,144.00 75.50,145.00 75.50,146.00 75.50,147.00 76.00,147.50 76.50,148.00 76.00,148.50 75.50,149.00 75.50,150.00 75.50,151.00 76.00,151.50 76.50,152.00 76.50,153.00 76.50,154.00 76.50,155.00 76.50,156.00 76.50,157.00 76.50,158.00 76.50,159.00 77.00,159.50 77.50,160.00 77.50,161.00 78.00,161.50 78.50,162.00 78.50,163.00 79.00,163.50 79.50,164.00 79.50,165.00 80.00,165.50 80.50,166.00 81.00,166.50 81.50,167.00 81.50,168.00 82.00,168.50 82.50,169.00 83.00,169.50 83.50,170.00 84.00,170.50 84.50,171.00 85.00,171.50 85.50,172.00 86.00,172.50 86.50,173.00 87.00,173.50 87.50,174.00 88.00,174.50 88.50,175.00 88.50,176.00 89.00,176.50 89.50,177.00 90.00,177.50 90.50,178.00 91.00,178.50 91.50,179.00 92.00,179.50 92.50,180.00 93.00,180.50 93.50,181.00 94.00,181.50 94.50,182.00 95.00,182.50 95.50,183.00 96.00,183.50 96.50,184.00 96.50,185.00 97.00,185.50 97.50,186.00 98.00,186.50 98.50,187.00 99.00,187.50 99.50,188.00 100.00,188.50 100.50,189.00 101.00,189.50 101.50,190.00 102.00,190.50 102.50,191.00 103.00,191.50 103.50,192.00 104.00,192.50 104.50,193.00 104.50,194.00 105.00,194.50 105.50,195.00 106.00,195.50 106.50,196.00 107.00,196.50 107.50,196.00 108.00,195.50 108.50,195.00 109.00,194.50 109.50,194.00 110.00,193.50 110.50,193.00 111.00,192.50 111.50,192.00 112.00,191.50 112.50,191.00 112.50,190.00 113.00,189.50 113.50,189.00 114.00,188.50 114.50,188.00 115.00,187.50 115.50,187.00 116.00,186.50 116.50,186.00 116.50,185.00 117.00,184.50 117.50,184.00 118.00,183.50 118.50,183.00 119.00,182.50 119.50,182.00 120.00,181.50 120.50,181.00 121.00,180.50 121.50,180.00 121.50,179.00 122.00,178.50 122.50,178.00 123.00,177.50 123.50,177.00 124.00,176.50 124.50,176.00 125.00,175.50 125.50,175.00 126.00,174.50 126.50,174.00 127.00,173.50 127.50,173.00 127.50,172.00 128.00,171.50 128.50,171.00 129.00,170.50 129.50,170.00 130.00,169.50 130.50,169.00 131.00,168.50 131.50,168.00 132.00,167.50 132.50,167.00 132.50,166.00 133.00,165.50 133.50,165.00 134.00,164.50 134.50,164.00 134.50,163.00 135.00,162.50 135.50,162.00 135.50,161.00 136.00,160.50 136.50,160.00 136.50,159.00 136.50,158.00 137.00,157.50 137.50,157.00 137.50,156.00 137.50,155.00 137.50,154.00 137.50,153.00 137.50,152.00 137.50,151.00 137.50,150.00 137.50,149.00 137.50,148.00 137.50,147.00 137.50,146.00 137.50,145.00 137.50,144.00 137.00,143.50 136.50,143.00 136.50,142.00 136.50,141.00 136.00,140.50 135.50,140.00 135.50,139.00 135.50,138.00 135.00,137.50 134.50,137.00 134.50,136.00 134.00,135.50 133.50,135.00 133.00,134.50 132.50,134.00 132.50,133.00 132.00,132.50 131.50,132.00 131.00,131.50 130.50,131.00 130.50,130.00 130.00,129.50 129.50,129.00 129.00,128.50 128.50,128.00 128.00,127.50 127.50,127.00 127.00,126.50 126.50,126.00 126.00,125.50 125.00,125.50 124.50,125.00 124.00,124.50 123.50,124.00 123.00,123.50 122.50,123.00 122.00,122.50 121.00,122.50 120.50,122.00 120.00,121.50 119.00,121.50 118.50,121.00 118.00,120.50 117.00,120.50 116.50,120.00 116.00,119.50 115.00,119.50 114.00,119.50 113.00,119.50 112.50,119.00 112.00,118.50 111.00,118.50 110.50,118.00 111.00,117.50 111.50,117.00 112.00,116.50 112.50,116.00 113.00,115.50 113.50,115.00 113.50,114.00 114.00,113.50 114.50,113.00 114.50,112.00 115.00,111.50 115.50,111.00 116.00,110.50 116.50,110.00 116.50,109.00 117.00,108.50 117.50,108.00 118.00,107.50 118.50,107.00 118.50,106.00 119.00,105.50 119.50,105.00 120.00,104.50 120.50,104.00 121.00,103.50 122.00,103.50 122.50,104.00 123.00,104.50 124.00,104.50 125.00,104.50 125.50,105.00 126.00,105.50 127.00,105.50 127.50,106.00 128.00,106.50 129.00,106.50 130.00,106.50 130.50,107.00 131.00,107.50 131.50,108.00 132.00,108.50 133.00,108.50 133.50,109.00 134.00,109.50 135.00,109.50 135.50,110.00 136.00,110.50 136.50,111.00 137.00,111.50 137.50,112.00 138.00,112.50 138.50,113.00 139.00,113.50 139.50,114.00 140.00,114.50 141.00,114.50 141.50,115.00 142.00,115.50 142.50,116.00 143.00,116.50 143.50,117.00 144.00,117.50 144.50,118.00 144.50,119.00 145.00,119.50 145.50,120.00 146.00,120.50 146.50,121.00 147.00,121.50 147.50,122.00 147.50,123.00 148.00,123.50 148.50,124.00 149.00,124.50 149.50,125.00 149.50,126.00 150.00,126.50 150.50,127.00 150.50,128.00 151.00,128.50 151.50,129.00 151.50,130.00 152.00,130.50 152.50,131.00 152.50,132.00 152.50,133.00 153.00,133.50 153.50,134.00 153.50,135.00 153.50,136.00 154.00,136.50 154.50,137.00 154.50,138.00 154.50,139.00 154.50,140.00 155.00,140.50 155.50,141.00 155.50,142.00 155.50,143.00 155.50,144.00 155.50,145.00 155.50,146.00 155.50,147.00 155.50,148.00 155.50,149.00 155.50,150.00 155.50,151.00 155.50,152.00 155.50,153.00 155.50,154.00 155.50,155.00 155.50,156.00 155.50,157.00 155.00,157.50 154.50,158.00 154.50,159.00 154.50,160.00 154.50,161.00 154.00,161.50 153.50,162.00 153.50,163.00 153.50,164.00 153.00,164.50 152.50,165.00 152.50,166.00 152.00,166.50 151.50,167.00 151.50,168.00 151.00,168.50 150.50,169.00 150.50,170.00 150.00,170.50 149.50,171.00 149.50,172.00 149.00,172.50 148.50,173.00 148.50,174.00 148.00,174.50 147.50,175.00 147.00,175.50 146.50,176.00 146.50,177.00 146.00,177.50 145.50,178.00 145.00,178.50 144.50,179.00 144.00,179.50 143.50,180.00 143.50,181.00 143.00,181.50 142.50,182.00 142.00,182.50 141.50,183.00 141.00,183.50 140.50,184.00 140.00,184.50 139.50,185.00 139.50,186.00 139.00,186.50 138.50,187.00 138.00,187.50 137.50,188.00 137.00,188.50 136.50,189.00 136.00,189.50 135.50,190.00 135.00,190.50 134.50,191.00 134.50,192.00 134.00,192.50 133.50,193.00 133.00,193.50 132.50,194.00 132.00,194.50 131.50,195.00 131.00,195.50 130.50,196.00 130.00,196.50 129.50,197.00 129.00,197.50 128.50,198.00 128.50,199.00 128.00,199.50 127.50,200.00 127.00,200.50 126.50,201.00 126.00,201.50 125.50,202.00 125.00,202.50 124.50,203.00 124.00,203.50 123.50,204.00 123.00,204.50 122.50,205.00 122.50,206.00 122.00,206.50 121.50,207.00 121.00,207.50 120.50,208.00 120.00,208.50 119.50,209.00 119.00,209.50 118.50,210.00 118.00,210.50 117.50,211.00 117.50,212.00 117.00,212.50 116.50,213.00 116.00,213.50 115.50,214.00 115.00,214.50 114.50,215.00 114.00,215.50 113.50,216.00 113.00,216.50 112.50,217.00 112.00,217.50 111.50,218.00 111.00,218.50 110.50,219.00 110.00,219.50 109.50,220.00 109.50,221.00 109.00,221.50 108.50,222.00 108.00,222.50 107.00,222.50 106.50,222.00 106.00,221.50 105.50,221.00 105.00,220.50 104.50,220.00 104.00,219.50 103.50,219.00 103.00,218.50 102.50,218.00 102.00,217.50 101.50,217.00 101.00,216.50 100.50,216.00 100.00,215.50 99.50,215.00 99.00,214.50 98.50,214.00 98.00,213.50 97.50,213.00 97.50,212.00 97.00,211.50 96.50,211.00 96.00,210.50 95.50,210.00 95.00,209.50 94.50,209.00 94.00,208.50 93.50,208.00 93.00,207.50 92.50,207.00 92.00,206.50 91.50,206.00 91.00,205.50 90.50,205.00 90.50,204.00 90.00,203.50 89.50,203.00 89.00,202.50 88.50,202.00 88.00,201.50 87.50,201.00 87.00,200.50 86.50,200.00 86.00,199.50 85.50,199.00 85.00,198.50 84.50,198.00 84.00,197.50 83.50,197.00 83.50,196.00 83.00,195.50 82.50,195.00 82.00,194.50 81.50,194.00 81.00,193.50 80.50,193.00 80.00,192.50 79.50,192.00 79.00,191.50 78.50,191.00 78.50,190.00 78.00,189.50 77.50,189.00 77.00,188.50 76.50,188.00 76.00,187.50 75.50,187.00 75.00,186.50 74.50,186.00 74.50,185.00 74.00,184.50 73.50,184.00 73.00,183.50 72.50,183.00 72.00,182.50 71.50,182.00 71.00,181.50 70.50,181.00 70.50,180.00 70.00,179.50 69.50,179.00 69.00,178.50 68.50,178.00 68.50,177.00 68.00,176.50 67.50,176.00 67.00,175.50 66.50,175.00 66.50,174.00 66.00,173.50 65.50,173.00 65.00,172.50 64.50,172.00 64.50,171.00 64.00,170.50 63.50,170.00 63.50,169.00 63.00,168.50 62.50,168.00 62.50,167.00 62.00,166.50 61.50,166.00 61.50,165.00 61.00,164.50 60.50,164.00 60.50,163.00 60.50,162.00 60.00,161.50 59.50,161.00 59.50,160.00 59.50,159.00 59.00,158.50 58.50,158.00 58.50,157.00 58.50,156.00 58.50,155.00 58.00,154.50 57.50,154.00 57.50,153.00 57.50,152.00 57.50,151.00 57.50,150.00 57.50,149.00 57.50,148.00 57.50,147.00 57.50,146.00 57.50,145.00 57.50,144.00 57.50,143.00 57.50,142.00 57.50,141.00 57.50,140.00 57.50,139.00 57.50,138.00 57.50,137.00 57.50,136.00 57.50,135.00 57.50,134.00 57.50,133.00 57.50,132.00 57.50,131.00 57.50,130.00 57.50,129.00 57.50,128.00 57.50,127.00 57.50,126.00 57.50,125.00 57.50,124.00 57.50,123.00 57.50,122.00 57.50,121.00 57.50,120.00 57.50,119.00 57.50,118.00 57.50,117.00 57.50,116.00 57.50,115.00 57.50,114.00 57.50,113.00 57.50,112.00 57.50,111.00 57.50,110.00 57.50,109.00 57.50,108.00 57.50,107.00 57.50,106.00 57.50,105.00 57.50,104.00 57.50,103.00 57.50,102.00 57.50,101.00 57.50,100.00 57.50,99.00 57.50,98.00 57.50,97.00 57.50,96.00 57.50,95.00 57.50,94.00 57.50,93.00 57.50,92.00 57.50,91.00 57.50,90.00 57.50,89.00 57.50,88.00 57.50,87.00 57.50,86.00 57.50,85.00 57.50,84.00 57.50,83.00 57.50,82.00 57.50,81.00 57.50,80.00 57.50,79.00 57.50,78.00 57.50,77.00 57.50,76.00 57.50,75.00 57.50,74.00 57.50,73.00 57.50,72.00 57.50,71.00 57.50,70.00 57.50,69.00 57.50,68.00 57.50,67.00 57.50,66.00 57.50,65.00 57.50,64.00 57.50,63.00 57.50,62.00 57.50,61.00 57.50,60.00 57.50,59.00 57.50,58.00 57.50,57.00 57.50,56.00 57.50,55.00 57.50,54.00 57.50,53.00 57.50,52.00 57.50,51.00 57.50,50.00 57.50,49.00 57.50,48.00 57.50,47.00 57.50,46.00 57.50,45.00 57.50,44.00 57.50,43.00 57.50,42.00 57.50,41.00 57.50,40.00 57.50,39.00 57.50,38.00 57.50,37.00 57.50,36.00 57.50,35.00 57.50,34.00 57.50,33.00 57.50,32.00 57.50,31.00 57.50,30.00 57.50,29.00 57.50,28.00 57.50,27.00 57.50,26.00 57.50,25.00 57.50,24.00 57.50,23.00 57.50,22.00 57.50,21.00 57.50,20.00 57.50,19.00 57.50,18.00 57.50,17.00 57.50,16.00 57.50,15.00 57.50,14.00 57.50,13.00 57.50,12.00 57.00,11.50 56.00,11.50 55.00,11.50 54.00,11.50 53.00,11.50 52.00,11.50 51.00,11.50 50.00,11.50 49.00,11.50 48.00,11.50 47.00,11.50 46.00,11.50 45.00,11.50 44.00,11.50 43.00,11.50 42.00,11.50 41.00,11.50 40.00,11.50 39.00,11.50 38.50,12.00 38.50,13.00 38.50,14.00 38.50,15.00 38.50,16.00 38.50,17.00 38.50,18.00 38.50,19.00 38.50,20.00 38.50,21.00 38.50,22.00 38.50,23.00 38.50,24.00 38.50,25.00 38.50,26.00 38.50,27.00 38.50,28.00 38.50,29.00 38.50,30.00 38.50,31.00 38.50,32.00 38.50,33.00 38.50,34.00 38.50,35.00 38.50,36.00 38.50,37.00 38.50,38.00 38.50,39.00 38.50,40.00 38.50,41.00 38.50,42.00 38.50,43.00 38.50,44.00 38.50,45.00 38.50,46.00 38.50,47.00 38.50,48.00 38.50,49.00 38.50,50.00 38.50,51.00 38.50,52.00 38.50,53.00 38.50,54.00 38.50,55.00 38.50,56.00 38.50,57.00 38.50,58.00 38.50,59.00 38.50,60.00 38.50,61.00 38.50,62.00 38.50,63.00 38.50,64.00 38.50,65.00 38.50,66.00 38.50,67.00 38.50,68.00 38.50,69.00 38.50,70.00 38.50,71.00 38.50,72.00 38.50,73.00 38.50,74.00 38.50,75.00 38.50,76.00 38.50,77.00 38.50,78.00 38.50,79.00 38.50,80.00 38.50,81.00 38.50,82.00 38.50,83.00 38.50,84.00 38.50,85.00 38.50,86.00 38.50,87.00 38.50,88.00 38.50,89.00 38.50,90.00 38.50,91.00 38.50,92.00 38.50,93.00 38.50,94.00 38.50,95.00 38.50,96.00 38.50,97.00 38.50,98.00 38.50,99.00 38.50,100.00 38.50,101.00 38.50,102.00 38.50,103.00 38.50,104.00 38.50,105.00 38.50,106.00 38.50,107.00 38.50,108.00 38.50,109.00 38.50,110.00 38.50,111.00 38.50,112.00 38.50,113.00 38.50,114.00 38.50,115.00 38.50,116.00 38.50,117.00 38.50,118.00 38.50,119.00 38.50,120.00 38.50,121.00 38.50,122.00 38.50,123.00 38.50,124.00 38.50,125.00 38.50,126.00 38.50,127.00 38.50,128.00 38.50,129.00 38.50,130.00 38.50,131.00 38.50,132.00 38.50,133.00 38.50,134.00 38.50,135.00 38.50,136.00 38.50,137.00 38.50,138.00 38.50,139.00 38.50,140.00 38.50,141.00 38.50,142.00 38.50,143.00 38.50,144.00 38.50,145.00 38.50,146.00 38.50,147.00 38.50,148.00 38.50,149.00 38.50,150.00 38.50,151.00 38.50,152.00 38.50,153.00 38.50,154.00 39.00,154.50 39.50,155.00 39.50,156.00 39.50,157.00 39.50,158.00 39.50,159.00 40.00,159.50 40.50,160.00 40.50,161.00 40.50,162.00 40.50,163.00 40.50,164.00 41.00,164.50 41.50,165.00 41.50,166.00 41.50,167.00 42.00,167.50 42.50,168.00 42.50,169.00 43.00,169.50 43.50,170.00 43.50,171.00 43.50,172.00 44.00,172.50 44.50,173.00 44.50,174.00 44.50,175.00 45.00,175.50 45.50,176.00 45.50,177.00 46.00,177.50 46.50,178.00 46.50,179.00 47.00,179.50 47.50,180.00 47.50,181.00 48.00,181.50 48.50,182.00 49.00,182.50 49.50,183.00 49.50,184.00 50.00,184.50 50.50,185.00 50.50,186.00 51.00,186.50 51.50,187.00 52.00,187.50 52.50,188.00 52.50,189.00 53.00,189.50 53.50,190.00 54.00,190.50 54.50,191.00 55.00,191.50 55.50,192.00 55.50,193.00 56.00,193.50 56.50,194.00 57.00,194.50 57.50,195.00 58.00,195.50 58.50,196.00 59.00,196.50 59.50,197.00 60.00,197.50 60.50,198.00 60.50,199.00 61.00,199.50 61.50,200.00 62.00,200.50 62.50,201.00 63.00,201.50 63.50,202.00 64.00,202.50 64.50,203.00 65.00,203.50 65.50,204.00 66.00,204.50 66.50,205.00 67.00,205.50 67.50,206.00 67.50,207.00 68.00,207.50 68.50,208.00 69.00,208.50 69.50,209.00 70.00,209.50 70.50,210.00 71.00,210.50 71.50,211.00 72.00,211.50 72.50,212.00 73.00,212.50 73.50,213.00 73.50,214.00 74.00,214.50 74.50,215.00 75.00,215.50 75.50,216.00 76.00,216.50 76.50,217.00 77.00,217.50 77.50,218.00 78.00,218.50 78.50,219.00 79.00,219.50 79.50,220.00 80.00,220.50 80.50,221.00 81.00,221.50 81.50,222.00 81.50,223.00 82.00,223.50 82.50,224.00 83.00,224.50 83.50,225.00 84.00,225.50 84.50,226.00 85.00,226.50 85.50,227.00 86.00,227.50 86.50,228.00 87.00,228.50 87.50,229.00 88.00,229.50 88.50,230.00 89.00,230.50 89.50,231.00 90.00,231.50 90.50,232.00 91.00,232.50 91.50,233.00 91.50,234.00 92.00,234.50 93.00,234.50 93.50,235.00 93.50,236.00 94.00,236.50 94.50,237.00 95.00,237.50 95.50,238.00 96.00,238.50 96.50,239.00 97.00,239.50 97.50,240.00 98.00,240.50 98.50,241.00 99.00,241.50 99.50,242.00 100.00,242.50 100.50,243.00 101.00,243.50 101.50,244.00 102.00,244.50 102.50,245.00 103.00,245.50 103.50,246.00 104.00,246.50 104.50,247.00 105.00,247.50 105.50,248.00 106.00,248.50 107.00,248.50 108.00,248.50 108.50,248.00 109.00,247.50 Z" />
  </g>
</svg>
